<svg width="274" height="123" viewBox="0 0 274 123" fill="none" xmlns="http://www.w3.org/2000/svg">
<path d="M235.5 10C235.5 4.47716 231.023 0 225.5 0H10C4.47715 0 0 4.47715 0 10V113C0 118.523 4.44698 123 9.96983 123C29.8543 123 74.8483 123 101.846 123C137.273 123 171.199 95.9899 225.146 95.9899C260.164 95.9899 254.082 95.9899 245.503 95.9899C239.981 95.9899 235.5 91.5127 235.5 85.9899V10Z" fill="#BD2323"/>
<path d="M274 0L246 95.9899H211.146V0H274Z" fill="#BD2323"/>
<circle cx="58" cy="62" r="28" fill="url(#paint0_radial_117_83)" stroke="white" stroke-width="4"/>
<circle cx="139" cy="38" r="8" fill="url(#paint1_radial_117_83)" stroke="#8F1616" stroke-width="2"/>
<circle cx="168" cy="38" r="8" fill="url(#paint2_radial_117_83)" stroke="#8F1616" stroke-width="2"/>
<circle cx="111" cy="38" r="8" fill="url(#paint3_radial_117_83)" stroke="#8F1616" stroke-width="2"/>
<defs>
<radialGradient id="paint0_radial_117_83" cx="0" cy="0" r="1" gradientUnits="userSpaceOnUse" gradientTransform="translate(48 52) rotate(75.9638) scale(41.2311)">
<stop stop-color="#9ADCFF"/>
<stop offset="1" stop-color="#176A9E"/>
</radialGradient>
<radialGradient id="paint1_radial_117_83" cx="0" cy="0" r="1" gradientUnits="userSpaceOnUse" gradientTransform="translate(136 35) rotate(75.9638) scale(12.3693)">
<stop stop-color="#FFED56"/>
<stop offset="1" stop-color="#A18D19"/>
</radialGradient>
<radialGradient id="paint2_radial_117_83" cx="0" cy="0" r="1" gradientUnits="userSpaceOnUse" gradientTransform="translate(165 35) rotate(75.9638) scale(12.3693)">
<stop offset="0.046875" stop-color="#5FB16C"/>
<stop offset="1" stop-color="#336A3F"/>
</radialGradient>
<radialGradient id="paint3_radial_117_83" cx="0" cy="0" r="1" gradientUnits="userSpaceOnUse" gradientTransform="translate(108 35) rotate(75.9638) scale(12.3693)">
<stop offset="0.046875" stop-color="#F94264"/>
<stop offset="1" stop-color="#A8001B"/>
</radialGradient>
</defs>
</svg>
